<svg id="Layer_1" data-name="Layer 1" xmlns="http://www.w3.org/2000/svg" viewBox="0 200 1100 260">
    <defs>
        <style>
            .cls-2 {
                fill: #000;
            }
        </style>
    </defs>
    <path class="cls-2"
        d="M641.07,238.05h34.38v50.67h20.42v29.73H675.45V426H641.07V318.45H623.49V288.72h17.58ZM531.64,316.9q-16,0-26.59,11.29t-10.6,28.91q0,17.76,10.77,29.25a35.05,35.05,0,0,0,26.54,11.46c10.82,0,19.82-3.75,26.93-11.29s10.73-17.36,10.73-29.55q0-17.91-10.73-29C551.58,320.6,542.54,316.9,531.64,316.9Zm36.23-28.18h34.38V426H567.87V411.38c-6.72,6.38-13.49,11-20.25,13.75a57.09,57.09,0,0,1-22,4.22q-26.69,0-46.1-20.6t-19.43-51.14q0-31.73,18.83-52t45.67-20.25A58.93,58.93,0,0,1,547.79,290a63.8,63.8,0,0,1,20.08,13.83Zm-256.48-53h34.38v67A77.38,77.38,0,0,1,366,289.71a52.27,52.27,0,0,1,20.59-4.35q20.36,0,34.34,14.13,12,12.22,11.94,35.89V426H399v-60.1c0-15.86-.73-26.63-2.24-32.23S392.69,323.83,389,321a21.67,21.67,0,0,0-13.48-4.13,25.53,25.53,0,0,0-17.92,6.93q-7.44,6.93-10.34,18.88c-1,4.13-1.51,13.52-1.51,28.22V426H311.39ZM175.63,326a7.81,7.81,0,1,1-7.8,7.8A7.8,7.8,0,0,1,175.63,326Zm28.27,0a7.81,7.81,0,1,1-7.81,7.8A7.8,7.8,0,0,1,203.9,326Zm28.26,0a7.81,7.81,0,1,1-7.8,7.8A7.8,7.8,0,0,1,232.16,326ZM284,273l-24.78,23.53Q234,269.86,202.43,269.85q-26.64,0-44.9,18.18T139.26,332.8q0,18.54,8.1,32.91a57.64,57.64,0,0,0,19.84,20.85l-4.75,26.14,40.62-16.18a67.68,67.68,0,0,0,28.14-5.73q12.79-5.76,28-20.9l24,25.08q-20.55,20.1-38.86,27.87c-12.19,5.22-26.15,7.8-41.79,7.8q-43.31,0-70.92-27.44t-27.57-70.32q0-27.78,12.58-49.33t36-34.68a101.42,101.42,0,0,1,50.45-13.14A107.21,107.21,0,0,1,284,273Z" />
    <polygon class="cls-2"
        points="734.59 238.85 768.97 238.85 768.97 289.51 789.39 289.51 789.39 319.24 768.97 319.24 768.97 426.78 734.59 426.78 734.59 319.24 717.01 319.24 717.01 289.51 734.59 289.51 734.59 238.85" />
    <path class="cls-2"
        d="M861.57,426.73v-76l9.75,26.06L790.18,240.62h45.31l62.17,104.49H871.58L934,240.62h41.88L894.76,376.75l9.48-26.06v76Z" />
</svg>