<svg id="Layer_1" data-name="Layer 1" xmlns="http://www.w3.org/2000/svg" viewBox="0 0 1080 1080"><defs><style>.cls-1{fill:#fff;}.cls-2{fill:#101828;}.cls-2,.cls-3{fill-rule:evenodd;}.cls-3{fill:#70cbf3;}</style></defs><rect class="cls-1" x="-0.21" y="0.37" width="1080" height="1080"/><path class="cls-2" d="M626.56,433.41H454.42c-30.16,0-54.77,25-54.77,55.22v93.73a54.88,54.88,0,0,0,54.77,54.76h11.12l.93,1.39,2.79,56.61,83.06-56.61.48-1.39c46.39,0,128.53,13,128.53-54.76V488.63c0-30.17-24.14-55.22-54.77-55.22Z"/><path class="cls-3" d="M662.77,385.61H490.15c-26,0-48.26,19-53.36,44.1a55.62,55.62,0,0,1,17.63-2.8H626.56a62,62,0,0,1,61.72,61.72V581.9c17.17-7.43,28.78-21.81,28.78-47.33V440.36c0-30.15-24.12-54.75-54.29-54.75Z"/></svg>