<svg id="Layer_1" data-name="Layer 1" xmlns="http://www.w3.org/2000/svg" viewBox="0 0 1080 1080">
    <defs>
        <style>
            .cls-2 {
                fill: #000;
            }
        </style>
    </defs>
    <path class="cls-2"
        d="M664.21,342.29c-48.08-42.07-112.07-65.24-180.16-65.24S352,300.22,303.88,342.29c-47.87,41.88-74.23,97.5-74.23,156.62,0,45.86,15.92,89.87,46,127.29l1.75,2.16-.66,2.71a557.62,557.62,0,0,0-12.68,76.23,3.42,3.42,0,0,0,1.2,3,3.35,3.35,0,0,0,3.08.69l83.43-22.46,2,1C393,710,438.09,720.79,484.05,720.79c68.09,0,132.08-23.17,180.16-65.24,47.87-41.89,74.24-97.52,74.24-156.64S712.08,384.17,664.21,342.29ZM484.05,525.75a26.84,26.84,0,1,1,26.83-26.84A26.87,26.87,0,0,1,484.05,525.75Zm-122.27,0a26.84,26.84,0,1,1,26.83-26.84A26.86,26.86,0,0,1,361.78,525.75Zm244.53,0a26.84,26.84,0,1,1,26.84-26.84A26.87,26.87,0,0,1,606.31,525.75Z" />
    <path class="cls-2"
        d="M818.67,745.06l1.75-2.18c19.31-24,29.51-52.19,29.51-81.57,0-58.12-40.85-110.45-102.35-132.06-7.48,50.94-33.76,98-75.89,134.84-36.39,31.84-81.47,53.29-130.52,62.68,28,47,84.05,76.92,145.23,76.92a181.93,181.93,0,0,0,83.84-20.14l2-1,55,14.81a.17.17,0,0,0,.21,0,.22.22,0,0,0,.09-.22,362.22,362.22,0,0,0-8.21-49.32Z" />
</svg>